<?xml version="1.0" encoding="UTF-8" standalone="no"?>
<svg
   viewBox="0 0 377.95276 377.95276"
   version="1.1"
   id="svg826"
   sodipodi:docname="CWV.svg"
   width="377.95276"
   height="377.95276"
   inkscape:version="1.1.1 (c3084ef, 2021-09-22)"
   xmlns:inkscape="http://www.inkscape.org/namespaces/inkscape"
   xmlns:sodipodi="http://sodipodi.sourceforge.net/DTD/sodipodi-0.dtd"
   xmlns="http://www.w3.org/2000/svg"
   xmlns:svg="http://www.w3.org/2000/svg">
  <defs
     id="defs830" />
  <sodipodi:namedview
     id="namedview828"
     pagecolor="#ffffff"
     bordercolor="#666666"
     borderopacity="1.0"
     inkscape:pageshadow="2"
     inkscape:pageopacity="0.0"
     inkscape:pagecheckerboard="0"
     showgrid="false"
     inkscape:zoom="1.4882812"
     inkscape:cx="255.66404"
     inkscape:cy="255.66404"
     inkscape:window-width="1920"
     inkscape:window-height="1027"
     inkscape:window-x="0"
     inkscape:window-y="25"
     inkscape:window-maximized="1"
     inkscape:current-layer="svg826" />
  <!--! Font Awesome Pro 6.1.1 by @fontawesome - https://fontawesome.com License - https://fontawesome.com/license (Commercial License) Copyright 2022 Fonticons, Inc. -->
  <path
     d="m 371.16078,194.95592 -59.33373,-59.32832 35.34037,-35.34452 c 9.59735,-9.685053 9.59735,-25.371585 0,-35.064016 L 312.1002,30.155051 c -9.68593,-9.68505 -25.38128,-9.68505 -35.06722,0 L 241.68522,65.499576 182.3884,6.8282552 C 177.88503,2.4913904 171.90515,0 165.70379,0 159.4286,0 153.43395,2.4913904 149.093,6.8282552 L 77.66661,78.248113 c -9.139625,9.227372 -9.139625,24.079747 0,33.307127 l 59.24514,59.33569 -7.16109,7.30808 C 89.884768,160.11335 43.891339,161.58974 5.35431,182.16678 c -6.27371031,3.41412 -7.1042497,12.09154 -2.1210131,17.16291 l 79.4364821,79.3554 -13.20004,13.10286 c -1.937925,-0.55364 -3.691286,-1.19955 -5.721494,-1.19955 -13.104066,0 -23.624232,10.61517 -23.624232,23.62207 0,13.10287 10.520166,23.62207 23.624232,23.62207 13.008093,0 23.624233,-10.5192 23.624233,-23.62207 0,-2.03003 -0.645975,-3.78323 -1.199668,-5.72098 l 13.104067,-13.19883 79.436483,79.42922 c 4.98323,4.98278 13.74635,4.15231 17.0685,-2.12229 20.58262,-38.57043 22.05913,-84.52273 3.96814,-124.38498 l 7.38257,-7.28815 59.24515,59.32093 c 9.22821,9.13879 24.08195,9.13879 32.55714,0 l 71.42639,-71.41985 c 5.08143,-4.34204 7.5915,-10.98575 7.5915,-16.59598 0,-6.2008 -2.51007,-12.84451 -6.79197,-17.27364 z M 162.0125,145.71866 111.14657,94.857383 165.68164,40.415889 216.51803,91.262398 Z m 121.07419,121.06312 -50.86592,-50.86128 54.44647,-54.53745 50.85116,50.83912 z"
     id="path824"
     style="stroke-width:0.738223" />
</svg>
